# xmcd CD database file
#
# Track frame offsets:
#	150
#	15879
#	33808
#	49128
#	62501
#	80683
#	94413
#	110424
#	126977
#	140870
#	156781
#	172803
#
# Disc length: 2537 seconds
#
# Revision: 0
# Processed by: cddbd v1.4PL0 Copyright (c) Steve Scherf et al.
# Submitted via: CDex 1.50beta10
#
DISCID=9709e70c
DTITLE=Phil Coulter 4 - Admire The Moonlight
DYEAR=2001
DGENRE=New Age
TTITLE0=The Cliffs Of Dooneen
TTITLE1=Will Ye Go Lassie Go
TTITLE2=Spancil Hill
TTITLE3=The Wests Awake
TTITLE4=My Love Is Like A Red Rose
TTITLE5=Beautiful Dreamer
TTITLE6=In THe Gloaming
TTITLE7=The Mountains Of Mourne
TTITLE8=I Loved The Ground She Walked Upon
TTITLE9=The Marino Waltz - Love Is Pleasing
TTITLE10=A Song For Ireland
TTITLE11=The Green Fields Of France
EXTD=YEAR: 2001
EXTT0=
EXTT1=
EXTT2=
EXTT3=
EXTT4=
EXTT5=
EXTT6=
EXTT7=
EXTT8=
EXTT9=
EXTT10=
EXTT11=
PLAYORDER=
